<svg id="svg" version="1.1" xmlns="http://www.w3.org/2000/svg" xmlns:xlink="http://www.w3.org/1999/xlink" width="400" height="400" viewBox="0, 0, 400,400"><g id="svgg"><path id="path0" d="M158.400 108.200 L 158.400 131.600 130.200 131.600 L 102.000 131.600 102.000 166.400 L 102.000 201.200 130.200 201.200 L 158.400 201.200 158.400 224.600 L 158.400 248.000 186.100 248.000 L 213.800 247.999 215.000 246.976 C 215.660 246.413,216.590 245.618,217.066 245.209 C 217.542 244.800,218.352 244.240,218.866 243.966 C 219.380 243.691,220.277 242.957,220.860 242.333 C 221.444 241.710,222.110 241.200,222.341 241.200 C 222.572 241.200,223.844 240.120,225.168 238.800 C 226.492 237.480,227.671 236.400,227.787 236.400 C 227.904 236.400,228.741 235.680,229.648 234.800 C 230.555 233.920,231.451 233.200,231.639 233.200 C 231.827 233.200,233.004 232.210,234.253 231.000 C 235.502 229.790,236.649 228.800,236.801 228.800 C 237.077 228.800,237.658 228.349,240.500 225.926 L 242.000 224.648 242.000 212.524 L 242.000 200.400 255.816 200.400 C 271.254 200.400,270.053 200.605,273.422 197.400 C 274.116 196.740,275.084 195.930,275.573 195.600 C 276.062 195.270,277.198 194.325,278.097 193.500 C 278.997 192.675,279.877 192.000,280.054 192.000 C 280.230 192.000,281.495 190.920,282.865 189.600 C 284.235 188.280,285.515 187.200,285.709 187.200 C 285.904 187.200,286.754 186.480,287.600 185.600 C 288.446 184.720,289.336 184.000,289.579 184.000 C 289.822 184.000,290.792 183.235,291.735 182.300 C 292.678 181.365,294.248 179.933,295.224 179.118 L 297.000 177.636 269.500 177.618 L 242.000 177.600 242.000 166.000 L 242.000 154.400 269.500 154.389 L 297.000 154.377 295.000 152.568 C 289.813 147.875,289.020 147.200,288.696 147.200 C 288.504 147.200,287.471 146.300,286.400 145.200 C 285.329 144.100,284.294 143.200,284.101 143.200 C 283.909 143.200,283.402 142.884,282.975 142.498 C 282.549 142.111,281.120 140.896,279.800 139.798 C 278.480 138.699,276.923 137.305,276.340 136.700 C 275.756 136.095,275.113 135.600,274.910 135.600 C 274.707 135.600,273.578 134.700,272.400 133.600 L 270.258 131.600 256.129 131.600 L 242.000 131.600 242.000 119.800 C 242.000 112.471,241.853 108.000,241.613 108.000 C 241.401 108.000,240.636 107.412,239.913 106.693 C 239.191 105.975,237.970 104.944,237.200 104.402 C 236.430 103.861,235.422 103.053,234.960 102.609 C 234.498 102.164,233.598 101.397,232.960 100.904 C 231.662 99.902,228.876 97.459,226.110 94.900 C 225.099 93.965,224.113 93.200,223.918 93.200 C 223.723 93.200,223.124 92.795,222.586 92.300 C 220.466 90.348,219.747 89.748,218.400 88.808 C 217.630 88.271,216.523 87.329,215.940 86.715 C 215.356 86.102,214.681 85.600,214.440 85.600 C 214.198 85.600,214.000 85.420,214.000 85.200 C 214.000 84.937,204.467 84.800,186.200 84.800 L 158.400 84.800 158.400 108.200 M214.306 119.300 L 214.412 131.600 200.006 131.600 L 185.600 131.600 185.600 119.467 C 185.600 112.793,185.722 107.211,185.872 107.062 C 186.021 106.912,192.456 106.837,200.172 106.895 L 214.200 107.000 214.306 119.300 M158.306 166.500 L 158.200 178.600 144.200 178.712 C 136.500 178.773,129.795 178.725,129.300 178.604 L 128.400 178.385 128.400 166.392 L 128.400 154.400 143.406 154.400 L 158.412 154.400 158.306 166.500 M214.306 166.500 L 214.200 178.600 200.000 178.600 L 185.800 178.600 185.694 166.500 L 185.588 154.400 200.000 154.400 L 214.412 154.400 214.306 166.500 M214.400 213.600 L 214.400 226.000 200.000 226.000 L 185.600 226.000 185.600 213.600 L 185.600 201.200 200.000 201.200 L 214.400 201.200 214.400 213.600 M215.800 287.571 C 200.661 289.827,197.137 307.571,210.594 313.790 C 213.982 315.356,220.969 316.124,224.000 315.263 C 231.453 313.148,230.846 313.873,230.711 307.247 L 230.600 301.800 225.100 301.689 L 219.600 301.577 219.600 303.572 L 219.600 305.566 222.700 305.683 L 225.800 305.800 225.928 307.362 C 226.196 310.639,224.841 311.600,219.952 311.600 C 209.093 311.600,203.412 301.926,210.143 294.896 C 213.125 291.781,220.044 290.560,225.436 292.196 C 228.009 292.976,227.817 293.041,228.581 291.130 C 229.216 289.544,229.213 289.438,228.525 289.038 C 226.200 287.684,219.906 286.959,215.800 287.571 M169.695 301.500 L 169.800 315.400 175.200 315.526 C 185.672 315.770,193.076 312.812,195.547 307.398 C 195.847 306.739,196.252 305.887,196.447 305.505 C 196.967 304.483,196.865 299.219,196.294 297.600 C 193.777 290.466,188.012 287.600,176.175 287.600 L 169.590 287.600 169.695 301.500 M186.000 292.675 C 189.770 294.489,191.689 297.450,191.689 301.455 C 191.689 308.186,186.668 311.584,176.700 311.597 L 174.400 311.600 174.400 301.567 L 174.400 291.535 179.300 291.672 C 183.314 291.784,184.525 291.966,186.000 292.675 " stroke="none" fill="#6f87a6" fill-rule="evenodd"></path><path id="path1" d="M0.000 200.000 L 0.000 400.000 200.000 400.000 L 400.000 400.000 400.000 200.000 L 400.000 0.000 200.000 0.000 L 0.000 0.000 0.000 200.000 M216.142 85.690 C 217.054 86.399,217.890 87.079,218.000 87.200 C 218.110 87.322,219.910 88.847,222.000 90.589 C 224.090 92.332,225.860 93.902,225.933 94.079 C 226.007 94.255,226.307 94.400,226.600 94.400 C 226.893 94.400,227.193 94.544,227.267 94.721 C 227.340 94.897,229.290 96.614,231.600 98.536 C 233.910 100.457,236.683 102.788,237.762 103.715 C 238.841 104.642,240.326 105.834,241.062 106.364 L 242.400 107.328 242.400 119.264 L 242.400 131.200 256.644 131.200 L 270.889 131.200 272.944 132.895 C 274.075 133.826,275.090 134.681,275.200 134.795 C 275.574 135.179,280.192 139.002,282.200 140.590 C 283.300 141.460,284.470 142.450,284.800 142.790 C 285.130 143.131,286.079 143.914,286.909 144.532 C 287.739 145.149,288.819 146.053,289.309 146.539 C 289.799 147.026,290.580 147.688,291.044 148.012 C 291.507 148.335,292.705 149.320,293.706 150.200 C 294.706 151.080,296.171 152.303,296.962 152.917 C 297.753 153.531,298.400 154.206,298.400 154.417 C 298.400 154.657,287.966 154.800,270.394 154.800 L 242.387 154.800 242.494 165.900 L 242.600 177.000 270.500 177.103 C 286.735 177.162,298.400 177.356,298.400 177.566 C 298.400 177.880,295.257 180.559,292.041 182.986 C 291.468 183.418,290.730 184.051,290.400 184.393 C 290.070 184.735,288.810 185.820,287.600 186.805 C 286.390 187.790,285.159 188.825,284.865 189.104 C 284.571 189.384,283.671 190.102,282.865 190.702 C 282.059 191.301,281.130 192.069,280.800 192.410 C 280.470 192.750,279.300 193.742,278.200 194.614 C 277.100 195.486,276.110 196.292,276.000 196.405 C 275.890 196.519,274.810 197.416,273.600 198.400 C 272.390 199.384,271.301 200.324,271.180 200.489 C 271.058 200.654,264.578 200.837,256.780 200.895 L 242.600 201.000 242.494 213.248 L 242.389 225.495 239.341 228.048 C 237.665 229.451,235.803 230.960,235.204 231.400 C 234.606 231.840,233.299 232.920,232.301 233.800 C 231.302 234.680,230.151 235.670,229.743 236.001 C 228.265 237.197,224.900 239.979,219.889 244.148 L 214.777 248.400 186.192 248.400 L 157.606 248.400 157.503 225.100 L 157.400 201.800 129.200 201.600 L 101.000 201.400 101.000 166.400 L 101.000 131.400 129.300 131.297 L 157.600 131.195 157.600 107.797 L 157.600 84.400 186.042 84.400 L 214.485 84.400 216.142 85.690 M186.000 119.600 L 186.000 131.200 200.000 131.200 L 214.000 131.200 214.000 119.600 L 214.000 108.000 200.000 108.000 L 186.000 108.000 186.000 119.600 M129.600 166.400 L 129.600 178.000 143.600 178.000 L 157.600 178.000 157.600 166.400 L 157.600 154.800 143.600 154.800 L 129.600 154.800 129.600 166.400 M186.000 166.400 L 186.000 178.000 200.000 178.000 L 214.000 178.000 214.000 166.400 L 214.000 154.800 200.000 154.800 L 186.000 154.800 186.000 166.400 M186.267 201.867 C 186.120 202.013,186.000 207.233,186.000 213.467 L 186.000 224.800 200.000 224.800 L 214.000 224.800 214.000 213.200 L 214.000 201.600 200.267 201.600 C 192.713 201.600,186.413 201.720,186.267 201.867 M226.474 287.732 C 227.235 287.994,228.272 288.483,228.778 288.819 L 229.698 289.430 228.839 291.315 C 228.051 293.044,226.400 294.049,226.400 292.800 C 226.400 292.580,225.871 292.400,225.224 292.400 C 224.577 292.400,223.936 292.220,223.800 292.000 C 223.664 291.779,221.870 291.600,219.800 291.600 C 217.730 291.600,215.936 291.779,215.800 292.000 C 215.664 292.220,215.113 292.400,214.576 292.400 C 214.039 292.400,213.600 292.580,213.600 292.800 C 213.600 293.020,213.322 293.200,212.983 293.200 C 212.080 293.200,209.265 295.942,208.489 297.577 C 205.888 303.059,210.377 310.800,216.158 310.800 C 216.863 310.800,217.639 310.999,217.883 311.243 C 218.156 311.516,219.032 311.593,220.163 311.443 C 221.173 311.309,222.810 311.092,223.800 310.960 L 225.600 310.719 225.600 308.160 L 225.600 305.600 222.379 305.600 L 219.158 305.600 219.279 303.500 L 219.400 301.400 224.400 301.284 C 231.834 301.113,231.200 300.544,231.200 307.389 L 231.200 313.162 229.900 313.748 C 229.185 314.070,227.925 314.529,227.100 314.767 C 226.275 315.005,225.002 315.380,224.272 315.600 C 222.601 316.103,215.945 316.124,214.719 315.630 C 214.213 315.426,212.945 315.027,211.900 314.743 C 210.855 314.458,210.000 314.085,210.000 313.913 C 210.000 313.741,209.775 313.596,209.500 313.590 C 209.225 313.585,208.160 312.964,207.133 312.210 C 198.391 305.796,201.070 292.008,211.800 288.187 C 215.739 286.784,223.057 286.557,226.474 287.732 M184.694 287.647 C 185.742 287.893,186.913 288.253,187.295 288.447 C 187.677 288.641,188.262 288.800,188.595 288.800 C 188.928 288.800,189.200 288.980,189.200 289.200 C 189.200 289.420,189.425 289.600,189.700 289.600 C 190.161 289.601,191.405 290.518,193.400 292.327 C 194.697 293.504,195.600 294.767,195.600 295.405 C 195.600 295.732,195.736 296.000,195.903 296.000 C 196.914 296.000,197.693 303.841,196.847 305.505 C 196.652 305.887,196.256 306.740,195.965 307.400 C 194.873 309.883,190.527 313.376,187.000 314.605 C 182.411 316.204,169.970 316.638,169.214 315.226 C 168.571 314.025,168.652 287.726,169.300 287.465 C 170.297 287.063,182.837 287.211,184.694 287.647 M174.400 301.200 L 174.400 310.800 179.376 310.800 C 182.263 310.800,184.457 310.632,184.600 310.400 C 184.736 310.180,185.119 310.000,185.452 310.000 C 189.461 310.000,192.795 301.720,190.576 297.272 C 189.883 295.884,186.952 293.200,186.128 293.200 C 185.838 293.200,185.600 293.020,185.600 292.800 C 185.600 292.580,185.071 292.400,184.424 292.400 C 183.777 292.400,183.136 292.220,183.000 292.000 C 182.861 291.775,180.929 291.600,178.576 291.600 L 174.400 291.600 174.400 301.200 " stroke="none" fill="#fbfbfb" fill-rule="evenodd"></path><path id="path2" d="M158.188 108.200 C 158.188 121.180,158.238 126.432,158.300 119.871 C 158.362 113.311,158.361 102.691,158.300 96.271 C 158.238 89.852,158.187 95.220,158.188 108.200 M216.805 87.480 C 216.808 87.656,217.438 88.207,218.205 88.704 C 220.003 89.868,220.000 89.600,218.200 88.227 C 217.430 87.640,216.802 87.303,216.805 87.480 M222.400 91.829 C 222.400 92.253,223.636 93.297,223.867 93.067 C 223.992 92.941,223.817 92.560,223.476 92.219 C 222.841 91.584,222.400 91.424,222.400 91.829 M232.230 100.300 C 233.892 101.790,234.546 102.110,233.425 100.885 C 232.779 100.178,232.070 99.600,231.850 99.600 C 231.629 99.600,231.800 99.915,232.230 100.300 M235.605 103.080 C 235.608 103.256,236.238 103.807,237.005 104.304 C 238.803 105.468,238.800 105.200,237.000 103.827 C 236.230 103.240,235.602 102.903,235.605 103.080 M185.800 107.200 C 185.637 107.464,190.470 107.600,200.000 107.600 C 209.530 107.600,214.363 107.464,214.200 107.200 C 214.043 106.946,208.870 106.800,200.000 106.800 C 191.130 106.800,185.957 106.946,185.800 107.200 M277.233 137.700 C 277.325 137.755,277.940 138.250,278.600 138.800 L 279.800 139.800 278.830 138.700 C 278.297 138.095,277.682 137.600,277.464 137.600 C 277.245 137.600,277.142 137.645,277.233 137.700 M282.400 141.900 C 282.400 142.069,282.760 142.432,283.200 142.707 C 283.640 142.982,284.000 143.069,284.000 142.900 C 284.000 142.731,283.640 142.368,283.200 142.093 C 282.760 141.818,282.400 141.731,282.400 141.900 M287.200 145.825 C 287.200 146.125,288.273 147.200,288.571 147.200 C 289.080 147.200,288.751 146.562,288.000 146.093 C 287.560 145.818,287.200 145.698,287.200 145.825 M292.000 149.900 C 292.000 150.069,292.360 150.432,292.800 150.707 C 293.240 150.982,293.600 151.069,293.600 150.900 C 293.600 150.731,293.240 150.368,292.800 150.093 C 292.360 149.818,292.000 149.731,292.000 149.900 M295.887 153.223 C 296.595 153.958,297.262 154.472,297.369 154.365 C 297.475 154.258,296.896 153.657,296.081 153.029 L 294.600 151.887 295.887 153.223 M128.578 166.400 C 128.578 173.110,128.632 175.855,128.699 172.500 C 128.766 169.145,128.766 163.655,128.699 160.300 C 128.632 156.945,128.578 159.690,128.578 166.400 M158.094 166.295 L 158.000 178.390 143.500 178.500 L 129.000 178.610 143.513 178.705 C 154.895 178.780,158.067 178.691,158.219 178.295 C 158.325 178.018,158.362 172.483,158.300 165.995 L 158.187 154.200 158.094 166.295 M295.992 178.513 C 295.438 179.001,294.465 179.808,293.831 180.306 C 293.197 180.804,292.763 181.297,292.868 181.401 C 292.973 181.506,293.407 181.278,293.833 180.896 C 294.259 180.513,295.287 179.615,296.118 178.900 C 296.948 178.185,297.487 177.606,297.314 177.613 C 297.141 177.620,296.546 178.025,295.992 178.513 M192.900 178.699 C 196.805 178.765,203.195 178.765,207.100 178.699 C 211.005 178.634,207.810 178.580,200.000 178.580 C 192.190 178.580,188.995 178.634,192.900 178.699 M288.460 184.642 C 288.162 184.978,287.999 185.332,288.095 185.429 C 288.192 185.526,288.598 185.244,288.998 184.802 C 289.397 184.361,289.561 184.007,289.362 184.015 C 289.163 184.024,288.757 184.305,288.460 184.642 M284.254 188.255 C 283.623 188.797,283.181 189.315,283.271 189.404 C 283.361 189.494,283.951 189.124,284.582 188.582 C 285.213 188.040,285.655 187.522,285.565 187.432 C 285.474 187.342,284.884 187.712,284.254 188.255 M275.662 195.500 C 273.804 196.944,273.086 197.600,273.363 197.600 C 273.520 197.600,274.473 196.970,275.482 196.200 C 276.490 195.430,277.146 194.800,276.939 194.800 C 276.732 194.800,276.157 195.115,275.662 195.500 M158.188 224.600 C 158.188 237.580,158.238 242.832,158.300 236.271 C 158.362 229.711,158.361 219.091,158.300 212.671 C 158.238 206.252,158.187 211.620,158.188 224.600 M241.029 225.429 C 240.605 225.738,240.336 226.069,240.430 226.163 C 240.524 226.257,240.948 226.081,241.371 225.771 C 241.795 225.462,242.064 225.131,241.970 225.037 C 241.876 224.943,241.452 225.119,241.029 225.429 M236.154 229.291 C 234.685 230.426,233.880 231.200,234.168 231.200 C 234.292 231.200,235.218 230.570,236.227 229.800 C 237.236 229.030,237.892 228.400,237.685 228.400 C 237.477 228.400,236.789 228.801,236.154 229.291 M226.860 237.042 C 226.562 237.378,226.399 237.732,226.495 237.829 C 226.592 237.926,226.998 237.644,227.398 237.202 C 227.797 236.761,227.961 236.407,227.762 236.415 C 227.563 236.424,227.157 236.705,226.860 237.042 M217.225 245.100 C 214.607 247.266,213.804 247.999,214.049 248.000 C 214.186 248.000,215.424 247.100,216.800 246.000 C 218.176 244.900,219.134 244.000,218.928 244.000 C 218.722 244.000,217.956 244.495,217.225 245.100 M169.379 301.200 C 169.379 308.570,169.433 311.585,169.499 307.900 C 169.565 304.215,169.565 298.185,169.499 294.500 C 169.433 290.815,169.379 293.830,169.379 301.200 M225.720 308.000 C 225.720 309.210,225.795 309.705,225.887 309.100 C 225.978 308.495,225.978 307.505,225.887 306.900 C 225.795 306.295,225.720 306.790,225.720 308.000 " stroke="none" fill="#7c94ac" fill-rule="evenodd"></path><path id="path3" d="M214.400 84.925 C 214.400 84.994,214.985 85.579,215.700 86.225 L 217.000 87.400 215.825 86.100 C 214.730 84.888,214.400 84.616,214.400 84.925 M101.791 166.400 C 101.791 185.650,101.840 193.525,101.900 183.900 C 101.960 174.275,101.960 158.525,101.900 148.900 C 101.840 139.275,101.791 147.150,101.791 166.400 M186.083 225.500 C 186.606 226.130,214.000 226.237,214.000 225.610 C 214.000 225.366,208.696 225.179,199.834 225.110 C 188.536 225.022,185.752 225.101,186.083 225.500 M172.329 248.300 C 180.100 248.361,192.700 248.361,200.329 248.300 C 207.958 248.239,201.600 248.189,186.200 248.189 C 170.800 248.189,164.558 248.239,172.329 248.300 M219.309 303.600 C 219.309 304.590,219.387 304.995,219.482 304.500 C 219.578 304.005,219.578 303.195,219.482 302.700 C 219.387 302.205,219.309 302.610,219.309 303.600 M175.900 311.489 C 176.615 311.578,177.785 311.578,178.500 311.489 C 179.215 311.401,178.630 311.328,177.200 311.328 C 175.770 311.328,175.185 311.401,175.900 311.489 " stroke="none" fill="#8494b0" fill-rule="evenodd"></path><path id="path4" d="M157.600 107.797 L 157.600 131.195 129.300 131.297 L 101.000 131.400 101.000 166.400 L 101.000 201.400 129.200 201.600 L 157.400 201.800 157.503 225.100 C 157.560 237.915,157.740 248.400,157.903 248.400 C 158.454 248.400,158.048 201.878,157.494 201.526 C 157.222 201.353,144.535 201.209,129.300 201.206 L 101.600 201.200 101.600 166.403 L 101.600 131.605 129.700 131.503 L 157.800 131.400 157.903 108.100 L 158.006 84.800 186.255 84.800 L 214.503 84.800 215.988 86.100 C 220.075 89.678,222.166 91.415,222.562 91.563 C 222.803 91.652,223.270 92.015,223.600 92.370 C 223.930 92.724,225.190 93.818,226.400 94.800 C 227.610 95.782,228.870 96.859,229.200 97.194 C 229.530 97.529,231.600 99.242,233.800 101.001 C 236.000 102.760,238.250 104.614,238.800 105.122 C 239.350 105.630,240.292 106.343,240.894 106.706 L 241.989 107.366 242.094 119.383 L 242.200 131.400 256.303 131.505 L 270.406 131.610 272.303 133.046 C 273.346 133.836,274.740 134.964,275.400 135.553 C 276.060 136.143,276.980 136.889,277.444 137.212 C 277.907 137.536,279.102 138.520,280.098 139.400 C 281.095 140.280,282.605 141.567,283.455 142.260 C 284.305 142.954,285.398 143.854,285.884 144.260 C 286.370 144.667,287.971 145.990,289.441 147.200 C 290.912 148.410,292.994 150.164,294.069 151.098 C 295.143 152.032,296.505 153.112,297.094 153.498 C 298.122 154.172,297.038 154.208,270.183 154.400 L 242.200 154.600 242.200 166.000 L 242.200 177.400 270.200 177.604 C 285.600 177.716,298.009 177.851,297.775 177.904 C 297.542 177.957,297.002 178.325,296.575 178.722 C 296.149 179.119,294.706 180.334,293.369 181.422 C 292.032 182.510,289.221 184.840,287.122 186.600 C 285.023 188.360,282.793 190.205,282.166 190.700 C 281.539 191.195,281.183 191.600,281.375 191.600 C 281.719 191.600,283.819 190.098,284.865 189.104 C 285.159 188.825,286.390 187.790,287.600 186.805 C 288.810 185.820,290.070 184.735,290.400 184.393 C 290.730 184.051,291.468 183.418,292.041 182.986 C 295.257 180.559,298.400 177.880,298.400 177.566 C 298.400 177.356,286.735 177.162,270.500 177.103 L 242.600 177.000 242.494 165.900 L 242.387 154.800 270.394 154.800 C 287.966 154.800,298.400 154.657,298.400 154.417 C 298.400 154.206,297.753 153.531,296.962 152.917 C 296.171 152.303,294.706 151.080,293.706 150.200 C 292.705 149.320,291.507 148.335,291.044 148.012 C 290.580 147.688,289.799 147.026,289.309 146.539 C 288.819 146.053,287.739 145.149,286.909 144.532 C 286.079 143.914,285.130 143.131,284.800 142.790 C 284.470 142.450,283.300 141.460,282.200 140.590 C 280.192 139.002,275.574 135.179,275.200 134.795 C 275.090 134.681,274.075 133.826,272.944 132.895 L 270.889 131.200 256.644 131.200 L 242.400 131.200 242.400 119.264 L 242.400 107.328 241.062 106.364 C 240.326 105.834,238.841 104.642,237.762 103.715 C 236.683 102.788,233.910 100.457,231.600 98.536 C 229.290 96.614,227.340 94.897,227.267 94.721 C 227.193 94.544,226.893 94.400,226.600 94.400 C 226.307 94.400,226.007 94.255,225.933 94.079 C 225.860 93.902,224.090 92.332,222.000 90.589 C 219.910 88.847,218.110 87.322,218.000 87.200 C 217.890 87.079,217.054 86.399,216.142 85.690 L 214.485 84.400 186.042 84.400 L 157.600 84.400 157.600 107.797 M185.783 108.100 C 185.675 108.381,185.635 113.738,185.694 120.005 L 185.800 131.400 200.000 131.400 L 214.200 131.400 214.200 119.600 L 214.200 107.800 200.089 107.695 C 188.942 107.612,185.938 107.697,185.783 108.100 M214.000 119.600 L 214.000 131.200 200.000 131.200 L 186.000 131.200 186.000 119.600 L 186.000 108.000 200.000 108.000 L 214.000 108.000 214.000 119.600 M129.294 154.731 C 128.900 154.983,128.811 157.637,128.894 166.627 L 129.000 178.200 143.506 178.305 L 158.012 178.410 157.906 166.505 L 157.800 154.600 143.800 154.503 C 136.100 154.450,129.572 154.552,129.294 154.731 M185.783 154.900 C 185.675 155.181,185.635 160.538,185.694 166.805 L 185.800 178.200 200.000 178.200 L 214.200 178.200 214.200 166.400 L 214.200 154.600 200.089 154.495 C 188.942 154.412,185.938 154.497,185.783 154.900 M157.600 166.400 L 157.600 178.000 143.600 178.000 L 129.600 178.000 129.600 166.400 L 129.600 154.800 143.600 154.800 L 157.600 154.800 157.600 166.400 M214.000 166.400 L 214.000 178.000 200.000 178.000 L 186.000 178.000 186.000 166.400 L 186.000 154.800 200.000 154.800 L 214.000 154.800 214.000 166.400 M279.524 192.927 C 278.932 193.436,277.987 194.198,277.424 194.621 C 276.861 195.044,276.400 195.549,276.400 195.743 C 276.400 196.054,279.279 193.902,280.729 192.508 C 281.660 191.612,280.640 191.967,279.524 192.927 M273.723 197.747 C 272.581 198.656,271.636 199.552,271.623 199.737 C 271.610 199.923,272.545 199.301,273.700 198.357 C 274.855 197.412,275.875 196.585,275.967 196.519 C 276.058 196.454,276.058 196.331,275.967 196.247 C 275.875 196.163,274.865 196.838,273.723 197.747 M256.600 200.403 C 248.680 200.525,242.155 200.665,242.100 200.713 C 242.045 200.761,242.000 206.337,242.000 213.105 L 242.000 225.410 240.927 226.205 C 240.337 226.642,238.762 227.911,237.427 229.024 C 229.476 235.653,227.338 237.432,226.800 237.865 C 223.490 240.534,217.772 245.426,217.667 245.679 C 217.593 245.856,217.293 246.000,217.000 246.000 C 216.707 246.000,216.407 246.138,216.333 246.307 C 216.260 246.476,215.681 247.016,215.046 247.507 C 214.411 247.998,214.091 248.400,214.335 248.400 C 214.578 248.400,217.077 246.487,219.889 244.148 C 224.900 239.979,228.265 237.197,229.743 236.001 C 230.151 235.670,231.302 234.680,232.301 233.800 C 233.299 232.920,234.606 231.840,235.204 231.400 C 235.803 230.960,237.665 229.451,239.341 228.048 L 242.389 225.495 242.494 213.248 L 242.600 201.000 256.900 200.895 C 265.974 200.828,271.200 200.646,271.200 200.395 C 271.200 200.178,271.155 200.041,271.100 200.090 C 271.045 200.140,264.520 200.280,256.600 200.403 M185.783 201.700 C 185.675 201.981,185.635 207.338,185.694 213.605 L 185.800 225.000 200.106 225.105 L 214.412 225.210 214.306 213.305 L 214.200 201.400 200.089 201.295 C 188.942 201.212,185.938 201.297,185.783 201.700 M214.000 213.200 L 214.000 224.800 200.000 224.800 L 186.000 224.800 186.000 213.467 C 186.000 207.233,186.120 202.013,186.267 201.867 C 186.413 201.720,192.713 201.600,200.267 201.600 L 214.000 201.600 214.000 213.200 M215.600 287.219 C 214.523 287.397,215.327 287.433,217.600 287.308 C 219.690 287.193,221.475 287.031,221.567 286.949 C 221.841 286.703,217.535 286.898,215.600 287.219 M172.880 287.498 C 174.794 287.571,178.034 287.571,180.080 287.498 C 182.126 287.426,180.560 287.366,176.600 287.365 C 172.640 287.365,170.966 287.424,172.880 287.498 M222.200 287.398 C 223.218 287.743,226.462 287.885,225.954 287.563 C 225.649 287.370,224.590 287.224,223.600 287.238 C 222.610 287.252,221.980 287.324,222.200 287.398 M168.890 301.024 C 168.780 317.729,167.981 316.058,176.003 315.900 L 182.200 315.778 175.900 315.689 C 172.435 315.640,169.561 315.555,169.513 315.500 C 169.465 315.445,169.326 309.100,169.203 301.400 L 168.980 287.400 168.890 301.024 M210.500 288.634 C 209.785 288.946,209.200 289.294,209.200 289.407 C 209.200 289.615,212.006 288.527,212.346 288.187 C 212.686 287.847,211.820 288.057,210.500 288.634 M206.328 291.561 C 205.158 292.640,204.290 293.585,204.400 293.661 C 204.510 293.738,205.565 292.855,206.745 291.700 C 209.452 289.050,209.158 288.952,206.328 291.561 M226.400 292.900 C 226.400 293.065,226.749 293.200,227.176 293.200 C 227.603 293.200,228.036 293.065,228.138 292.900 C 228.240 292.735,227.891 292.600,227.362 292.600 C 226.833 292.600,226.400 292.735,226.400 292.900 M187.000 293.452 C 187.220 293.645,188.120 294.432,188.999 295.201 L 190.598 296.600 189.399 295.266 C 188.740 294.532,187.840 293.745,187.400 293.517 C 186.960 293.289,186.780 293.260,187.000 293.452 M209.978 295.100 L 208.600 296.600 210.196 295.200 C 211.073 294.430,211.868 293.755,211.962 293.700 C 212.056 293.645,211.959 293.600,211.745 293.600 C 211.532 293.600,210.737 294.275,209.978 295.100 M202.956 296.243 C 202.624 297.037,202.426 297.759,202.514 297.848 C 202.603 297.936,202.959 297.287,203.305 296.404 C 204.089 294.409,203.782 294.268,202.956 296.243 M196.249 297.000 C 196.404 297.660,196.546 299.848,196.565 301.862 C 196.584 303.876,196.735 305.440,196.900 305.338 C 197.448 304.999,197.207 299.049,196.578 297.400 C 196.185 296.371,196.068 296.228,196.249 297.000 M202.142 301.800 C 202.141 303.780,202.208 304.640,202.292 303.712 C 202.376 302.784,202.377 301.164,202.295 300.112 C 202.212 299.060,202.143 299.820,202.142 301.800 M191.334 301.600 C 191.334 303.250,191.405 303.925,191.491 303.100 C 191.578 302.275,191.578 300.925,191.491 300.100 C 191.405 299.275,191.334 299.950,191.334 301.600 M207.369 300.626 C 207.222 301.411,207.258 302.404,207.451 302.833 C 207.704 303.399,207.806 303.007,207.821 301.407 C 207.846 298.837,207.739 298.652,207.369 300.626 M219.461 301.500 C 219.358 301.665,221.012 301.752,223.137 301.694 C 229.982 301.506,230.737 301.346,225.124 301.272 C 222.112 301.232,219.563 301.335,219.461 301.500 M230.888 307.267 C 230.824 311.517,230.662 313.189,230.300 313.335 C 229.908 313.493,229.911 313.544,230.313 313.568 C 231.140 313.619,231.230 312.862,231.100 306.981 L 230.975 301.400 230.888 307.267 M202.811 306.800 C 202.815 307.130,203.189 307.850,203.644 308.400 C 204.098 308.950,204.353 309.174,204.210 308.899 C 203.019 306.594,202.806 306.274,202.811 306.800 M204.400 309.725 C 204.400 309.794,204.985 310.379,205.700 311.025 L 207.000 312.200 205.825 310.900 C 204.730 309.688,204.400 309.416,204.400 309.725 M176.100 311.094 C 177.145 311.176,178.855 311.176,179.900 311.094 C 180.945 311.012,180.090 310.944,178.000 310.944 C 175.910 310.944,175.055 311.012,176.100 311.094 M208.000 312.764 C 208.550 313.214,209.180 313.583,209.400 313.585 C 209.828 313.588,209.105 313.034,207.800 312.360 C 207.269 312.085,207.336 312.221,208.000 312.764 M212.000 314.782 C 212.330 315.005,212.945 315.191,213.367 315.194 C 214.390 315.202,214.071 314.973,212.600 314.644 C 211.724 314.448,211.562 314.485,212.000 314.782 M183.000 315.210 C 182.466 315.447,182.798 315.486,184.000 315.327 C 184.990 315.196,185.875 315.024,185.967 314.944 C 186.314 314.643,183.764 314.872,183.000 315.210 M214.937 315.694 C 215.192 315.856,217.290 315.964,219.600 315.934 C 224.312 315.874,223.654 315.684,218.137 315.513 C 216.123 315.451,214.683 315.532,214.937 315.694 " stroke="none" fill="#a0adbc" fill-rule="evenodd"></path></g></svg>